<svg xmlns="http://www.w3.org/2000/svg" viewBox="0 0 32 32">
  <!--
    THE OFFICIAL GAZETTE — favicon.svg
    Glyph: UnifrakturMaguntia "G" — embedded path, no external references
    Self-contained. Place at root as favicon.svg.
  -->
  <!-- Paper background with slight rounded corners -->
  <rect width="32" height="32" fill="#F2EBD9" rx="2.5"/>
  <!-- Double-rule border -->
  <rect x="1.25" y="1.25" width="29.5" height="29.5" fill="none" stroke="#1A1714" stroke-width="0.9" rx="1.8"/>
  <rect x="2.5" y="2.5" width="27" height="27" fill="none" stroke="#1A1714" stroke-width="0.3"/>
  <!-- UnifrakturMaguntia "G" — actual glyph path, ink colour -->
  <g transform="translate(1.3014,29.2921) scale(0.018629,-0.018629)">
    <path d="M1145 1457Q1205 1373 1281.0 1303.5Q1357 1234 1441 1171Q1449 1167 1453 1163Q1463 1144 1447 1133L1207 966Q1176 941 1216 937Q1357 932 1441.0 779.0Q1525 626 1517 505Q1501 289 1311.5 132.0Q1122 -25 870 -38Q546 -56 308.0 160.5Q70 377 61 689Q53 1023 225.5 1244.0Q398 1465 624 1465Q803 1465 875 1311Q883 1294 900 1305L1115 1463Q1132 1474 1145 1457ZM992 800Q965 799 933 792Q910 788 904.0 803.5Q898 819 918 831L1206 1031Q1223 1043 1207 1057Q1055 1174 962 1290Q953 1302 940 1293L826 1210Q718 1130 725.5 1032.0Q733 934 862 794Q1078 556 995.5 433.0Q913 310 727 211Q704 200 693.5 214.5Q683 229 702 246Q746 288 796.0 346.0Q846 404 667 623Q540 778 514.0 871.5Q488 965 523.5 1027.5Q559 1090 637.0 1136.0Q715 1182 797 1242L836 1271Q846 1278 842 1290Q798 1420 638 1417Q495 1413 404.5 1248.5Q314 1084 320 874Q332 480 502.0 255.5Q672 31 928 31Q1102 31 1195.5 161.5Q1289 292 1287 443Q1285 568 1207.5 684.0Q1130 800 992 800Z" fill="#1A1714"/>
  </g>
</svg>